<svg xmlns="http://www.w3.org/2000/svg" xmlns:xlink="http://www.w3.org/1999/xlink" width="1344" zoomAndPan="magnify" viewBox="0 0 1008 1295.99994" height="1728" preserveAspectRatio="xMidYMid meet" version="1.0"><defs><g/><clipPath id="7a3cb1d0c3"><path d="M 302.417969 479.824219 L 705.582031 479.824219 L 705.582031 888.574219 L 302.417969 888.574219 Z M 302.417969 479.824219 " clip-rule="nonzero"/></clipPath></defs><g clip-path="url(#7a3cb1d0c3)"><path fill="#d9d9d9" d="M 700.25 648.652344 C 699.835938 648.625 699.417969 648.636719 698.996094 648.703125 L 696.25 645.074219 L 670.5625 594.367188 L 680.300781 584.953125 C 681.667969 585.945312 683.453125 586.328125 685.199219 585.832031 C 685.359375 585.785156 685.515625 585.730469 685.667969 585.671875 Z M 698.179688 691.4375 C 697.523438 690.546875 696.621094 689.875 695.605469 689.488281 L 699.320312 659.996094 C 700.011719 660.066406 700.726562 660.015625 701.4375 659.8125 C 701.503906 659.792969 701.5625 659.769531 701.628906 659.746094 Z M 693.378906 735.609375 C 692.273438 735.175781 691.09375 734.9375 689.878906 734.9375 L 694.21875 700.472656 C 694.527344 700.4375 694.835938 700.382812 695.144531 700.296875 C 695.988281 700.058594 696.730469 699.632812 697.347656 699.089844 Z M 687.296875 735.296875 C 685.90625 735.691406 684.675781 736.378906 683.652344 737.269531 L 653.058594 695.003906 C 654.675781 693.988281 655.679688 692.21875 655.722656 690.316406 L 687.925781 694.214844 C 687.851562 694.917969 687.902344 695.644531 688.109375 696.367188 C 688.695312 698.441406 690.359375 699.917969 692.320312 700.371094 L 687.9375 735.140625 C 687.722656 735.1875 687.511719 735.234375 687.296875 735.296875 Z M 662.066406 788.039062 L 661.445312 782.539062 L 683.707031 751.648438 C 684.070312 751.960938 684.460938 752.238281 684.863281 752.492188 L 665.761719 789.550781 C 664.722656 788.582031 663.410156 788.027344 662.066406 788.039062 Z M 627.65625 831.03125 C 627.441406 830.800781 627.214844 830.574219 626.976562 830.367188 L 653.785156 793.167969 L 657.113281 793.714844 C 657.117188 794.304688 657.203125 794.910156 657.375 795.511719 C 657.761719 796.875 658.527344 798.007812 659.492188 798.808594 Z M 585.675781 858.082031 C 584.976562 856.878906 583.867188 855.992188 582.585938 855.554688 L 583.722656 852.234375 L 612.117188 841.554688 C 612.285156 841.910156 612.480469 842.25 612.6875 842.574219 Z M 524.6875 876.3125 C 524.507812 875.742188 524.285156 875.199219 524.011719 874.6875 L 548.351562 865.535156 L 575.125 861.863281 C 575.160156 862.074219 575.203125 862.289062 575.265625 862.5 C 575.269531 862.519531 575.277344 862.539062 575.285156 862.558594 Z M 477.410156 876.648438 C 477.449219 876.199219 477.4375 875.738281 477.363281 875.273438 L 511.472656 870.59375 C 508.230469 872.164062 506.183594 875.449219 506.128906 878.992188 Z M 429.695312 863.351562 C 430.460938 861.460938 430.628906 859.3125 430.027344 857.199219 C 429.757812 856.242188 429.347656 855.363281 428.828125 854.570312 L 454.34375 837.378906 L 470.042969 870.742188 C 468.25 871.304688 466.921875 872.671875 466.351562 874.335938 Z M 409.25 811.546875 L 433.1875 805.566406 C 433.222656 805.75 433.265625 805.933594 433.316406 806.117188 C 434.230469 809.347656 437.265625 811.3125 440.09375 810.515625 C 440.570312 810.378906 441.011719 810.164062 441.410156 809.898438 L 453.523438 835.640625 L 427.625 853.09375 C 425.554688 851.015625 422.582031 849.957031 419.558594 850.386719 Z M 374.800781 815.613281 L 370.835938 812.058594 L 388.085938 739.199219 L 401.960938 791.476562 Z M 407.308594 811.640625 L 378.421875 818.859375 L 375.085938 815.867188 L 402.070312 791.890625 Z M 417.714844 850.84375 C 416.878906 851.136719 416.109375 851.539062 415.414062 852.027344 L 378.761719 819.164062 L 407.40625 812.007812 Z M 373.664062 820.046875 C 373.628906 819.867188 373.585938 819.6875 373.535156 819.511719 C 373.367188 818.917969 373.128906 818.367188 372.832031 817.871094 L 373.65625 817.140625 L 376.195312 819.414062 Z M 370.054688 815.367188 L 370.339844 814.164062 L 373.371094 816.882812 L 372.621094 817.546875 C 371.953125 816.558594 371.054688 815.804688 370.054688 815.367188 Z M 366.761719 815.113281 C 366.242188 815.261719 365.765625 815.492188 365.339844 815.792969 L 358.289062 803.359375 L 370.015625 813.875 L 369.695312 815.226562 C 368.757812 814.898438 367.746094 814.832031 366.761719 815.113281 Z M 355.347656 798.171875 L 349.574219 787.992188 C 349.917969 786.488281 349.898438 784.882812 349.449219 783.292969 C 348.945312 781.515625 347.964844 780.003906 346.6875 778.851562 L 381.140625 734.84375 C 382.914062 736.183594 385.140625 736.890625 387.4375 736.753906 L 387.878906 738.421875 L 370.515625 811.769531 Z M 347.945312 791.535156 C 348.613281 790.625 349.121094 789.605469 349.433594 788.519531 L 354.457031 797.375 Z M 311.777344 721.34375 C 313.894531 720.265625 315.128906 717.960938 314.835938 715.585938 L 358.550781 702.238281 L 379.21875 721.652344 C 377.550781 723.933594 376.90625 726.933594 377.738281 729.863281 C 378.136719 731.273438 378.835938 732.515625 379.746094 733.546875 L 345.160156 777.722656 C 344.558594 777.367188 343.921875 777.074219 343.257812 776.855469 Z M 337.71875 776.75 C 337.441406 776.828125 337.171875 776.917969 336.910156 777.019531 L 310.738281 721.75 C 310.980469 721.683594 311.207031 721.597656 311.433594 721.5 L 342.734375 776.703125 C 341.140625 776.28125 339.417969 776.265625 337.71875 776.75 Z M 309.847656 668.546875 C 311.339844 668.882812 312.933594 668.859375 314.507812 668.414062 C 315.355469 668.175781 316.140625 667.824219 316.855469 667.390625 L 310 710.628906 C 309.605469 710.574219 309.199219 710.558594 308.792969 710.585938 Z M 325.34375 599.441406 C 326.003906 599.886719 326.734375 600.183594 327.492188 600.300781 L 322.667969 630.722656 L 312.863281 649.824219 C 312.691406 649.808594 312.519531 649.796875 312.347656 649.789062 Z M 364.742188 544.945312 C 365.125 545.433594 365.546875 545.886719 366.011719 546.289062 L 354.65625 568.410156 L 331.996094 590.816406 C 331.472656 590.074219 330.816406 589.46875 330.082031 589.039062 Z M 417.597656 504.070312 C 417.773438 504.578125 418.015625 505.050781 418.3125 505.472656 L 400.441406 523.140625 L 379.386719 532.863281 C 379.101562 532.535156 378.789062 532.226562 378.460938 531.941406 Z M 466.058594 491.023438 C 466.113281 491.324219 466.179688 491.621094 466.261719 491.917969 C 466.332031 492.160156 466.414062 492.398438 466.5 492.632812 L 447.828125 501.253906 L 428.648438 502.773438 C 428.714844 502.078125 428.664062 501.367188 428.460938 500.660156 C 428.351562 500.273438 428.203125 499.902344 428.023438 499.558594 Z M 544.550781 492.636719 C 544.480469 492.957031 544.4375 493.289062 544.429688 493.621094 L 511.789062 496.199219 L 484.835938 490.449219 C 484.875 490.113281 484.894531 489.769531 484.898438 489.425781 Z M 606.992188 514.722656 C 606.746094 515.257812 606.542969 515.816406 606.402344 516.386719 L 558.742188 506.21875 L 553.84375 498.121094 C 554.621094 497.449219 555.195312 496.582031 555.519531 495.621094 Z M 680.253906 575.777344 C 679.988281 575.972656 679.742188 576.191406 679.519531 576.425781 L 656.695312 560.246094 C 657.085938 559.164062 657.15625 557.953125 656.820312 556.757812 C 655.960938 553.730469 652.8125 551.972656 649.785156 552.828125 C 649.746094 552.839844 649.710938 552.855469 649.671875 552.863281 L 624.671875 521.546875 C 624.714844 521.390625 624.765625 521.242188 624.804688 521.085938 Z M 654.644531 562.945312 C 655.488281 562.34375 656.140625 561.527344 656.546875 560.601562 L 679.265625 576.710938 C 678.105469 578.105469 677.632812 580.027344 678.164062 581.902344 C 678.488281 583.046875 679.144531 584.011719 679.992188 584.722656 L 670.386719 594.015625 Z M 667.910156 596.402344 C 665.710938 593.882812 662.265625 592.625 658.824219 593.335938 L 647.378906 572.796875 L 650.054688 563.863281 C 650.960938 564.074219 651.933594 564.066406 652.890625 563.792969 C 653.410156 563.648438 653.890625 563.425781 654.324219 563.160156 L 670.097656 594.289062 Z M 668.386719 608.273438 C 670.066406 605.992188 670.714844 602.984375 669.882812 600.046875 C 669.523438 598.785156 668.925781 597.660156 668.15625 596.699219 L 670.277344 594.644531 L 694.960938 643.375 Z M 694.398438 655.882812 C 694.480469 656.167969 694.585938 656.441406 694.707031 656.703125 L 677.226562 669.273438 L 650.515625 627.761719 L 656.660156 611.210938 C 658.667969 612.167969 661.023438 612.429688 663.335938 611.777344 C 664.777344 611.367188 666.042969 610.644531 667.089844 609.707031 L 697.105469 649.355469 C 694.851562 650.613281 693.667969 653.292969 694.398438 655.882812 Z M 678.253906 670.871094 L 695.773438 658.277344 C 696.261719 658.785156 696.839844 659.191406 697.46875 659.488281 L 693.734375 689.113281 C 693.175781 689.101562 692.601562 689.171875 692.035156 689.332031 C 691.5 689.484375 691.007812 689.710938 690.5625 689.992188 Z M 655.074219 687.542969 L 677.949219 671.09375 L 690.246094 690.207031 C 689.042969 691.078125 688.234375 692.386719 687.980469 693.839844 L 655.710938 689.929688 C 655.695312 689.5 655.628906 689.0625 655.503906 688.632812 C 655.398438 688.246094 655.253906 687.882812 655.074219 687.542969 Z M 643.363281 647.023438 L 650.347656 628.207031 L 676.917969 669.496094 L 653.917969 686.03125 C 652.800781 684.988281 651.292969 684.410156 649.722656 684.496094 Z M 680.75 747.027344 C 680.773438 747.113281 680.800781 747.199219 680.828125 747.289062 L 658.75 758.652344 L 655.613281 730.851562 L 680.636719 742.269531 C 680.28125 743.789062 680.292969 745.417969 680.75 747.027344 Z M 658.796875 759.054688 L 680.953125 747.652344 C 681.296875 748.609375 681.78125 749.480469 682.375 750.25 L 661.128906 779.730469 Z M 621.601562 828.042969 L 620.789062 787.734375 L 651.691406 792.824219 L 625.433594 829.261719 C 624.265625 828.59375 622.960938 828.171875 621.601562 828.042969 Z M 592.675781 826 L 611.753906 834.332031 C 611.15625 836.023438 611.027344 837.902344 611.484375 839.765625 L 584.515625 849.90625 Z M 579.480469 851.800781 L 574.828125 818.199219 L 592.328125 825.847656 L 584.054688 850.078125 Z M 579.964844 855.304688 L 579.75 853.730469 L 583.257812 852.40625 L 582.222656 855.445312 C 581.5 855.25 580.738281 855.199219 579.964844 855.304688 Z M 575.449219 855.34375 L 576.769531 856.863281 C 575.558594 858.046875 574.910156 859.742188 575.078125 861.484375 L 549.957031 864.933594 Z M 515.636719 869.640625 C 515.589844 869.640625 515.539062 869.636719 515.484375 869.640625 L 518.902344 802.960938 C 520.285156 803.210938 521.746094 803.160156 523.1875 802.75 C 524.890625 802.269531 526.351562 801.351562 527.488281 800.152344 L 574.121094 853.816406 L 541.460938 866.097656 Z M 517.324219 869.792969 L 539.855469 866.703125 L 522.925781 873.066406 C 521.5 871.351562 519.507812 870.191406 517.324219 869.792969 Z M 443.703125 803.882812 L 511.117188 794.148438 C 511.15625 794.832031 511.265625 795.519531 511.460938 796.207031 C 511.492188 796.316406 511.527344 796.425781 511.5625 796.535156 L 453.84375 835.425781 L 441.722656 809.671875 C 443.3125 808.421875 444.121094 806.1875 443.703125 803.882812 Z M 403.660156 790.476562 L 441.910156 756.488281 L 453.714844 762.394531 L 440.285156 799.171875 C 439.191406 798.640625 437.96875 798.480469 436.777344 798.816406 C 434.21875 799.542969 432.714844 802.285156 433.128906 805.191406 L 409.152344 811.179688 Z M 394.933594 691.128906 C 395.632812 692.308594 396.726562 693.179688 397.988281 693.609375 L 388.660156 717.945312 C 387.25 717.671875 385.761719 717.714844 384.285156 718.132812 C 382.824219 718.550781 381.542969 719.28125 380.492188 720.238281 L 360.648438 701.597656 Z M 338.453125 680.75 L 371.0625 639.910156 C 372.269531 640.488281 373.679688 640.648438 375.066406 640.253906 C 375.160156 640.226562 375.246094 640.195312 375.335938 640.164062 L 396.699219 683.449219 C 394.671875 684.777344 393.644531 687.316406 394.339844 689.773438 C 394.410156 690.011719 394.496094 690.238281 394.589844 690.460938 L 360.148438 701.128906 Z M 319.246094 665.316406 L 336.984375 681.976562 L 312.988281 712.03125 C 312.246094 711.367188 311.347656 710.90625 310.375 710.695312 L 317.285156 667.113281 C 318.027344 666.605469 318.6875 666 319.246094 665.316406 Z M 319.125 653.089844 C 317.96875 651.746094 316.464844 650.757812 314.792969 650.222656 L 321.714844 636.742188 Z M 320.355469 654.910156 L 368.164062 636.730469 C 368.644531 638.042969 369.566406 639.089844 370.71875 639.738281 L 338.171875 680.488281 L 320.3125 663.714844 C 321.417969 661.628906 321.75 659.132812 321.058594 656.683594 C 320.878906 656.058594 320.644531 655.464844 320.355469 654.910156 Z M 338.488281 604.066406 L 368.703125 631.726562 C 368.125 632.640625 367.808594 633.714844 367.820312 634.828125 L 319.488281 653.207031 L 322.273438 635.660156 Z M 329.523438 600.183594 C 330.621094 599.875 331.523438 599.1875 332.164062 598.28125 L 337.035156 602.738281 L 323.226562 629.640625 L 327.871094 600.347656 C 328.417969 600.390625 328.972656 600.339844 329.523438 600.183594 Z M 333.15625 593.707031 L 343.023438 591.074219 L 337.214844 602.386719 L 332.378906 597.960938 C 333.097656 596.769531 333.398438 595.257812 333.15625 593.707031 Z M 343.257812 590.617188 L 333.085938 593.332031 C 333.054688 593.183594 333.023438 593.035156 332.980469 592.886719 C 332.800781 592.25 332.535156 591.667969 332.210938 591.140625 L 354.097656 569.496094 Z M 373.5625 550.25 L 373.515625 582.539062 L 345.730469 589.957031 L 358.433594 565.207031 Z M 373.566406 548.511719 L 373.566406 549.714844 L 358.992188 564.125 L 367.582031 547.390625 C 369.355469 548.390625 371.449219 548.816406 373.566406 548.511719 Z M 422.429688 515.078125 L 423.691406 564.039062 C 423.515625 564.070312 423.339844 564.109375 423.167969 564.160156 C 421.757812 564.558594 420.628906 565.460938 419.90625 566.609375 L 380.652344 543.492188 C 380.738281 543.332031 380.816406 543.167969 380.890625 543.003906 L 397.484375 526.597656 Z M 422.242188 507.863281 L 422.375 513.011719 L 401.457031 522.671875 L 418.539062 505.785156 C 419.457031 506.929688 420.789062 507.671875 422.242188 507.863281 Z M 436.351562 506.554688 L 428.261719 504.335938 C 428.414062 503.957031 428.527344 503.5625 428.59375 503.15625 L 446.832031 501.714844 Z M 471.175781 499.792969 L 466.175781 514.726562 L 439.195312 507.335938 L 452.296875 501.28125 Z M 471.742188 498.089844 L 471.304688 499.402344 L 453.292969 500.824219 L 467.332031 494.335938 C 468.390625 496.039062 469.945312 497.335938 471.742188 498.089844 Z M 482.75 498.496094 L 481.5 496.609375 C 482.859375 495.46875 483.867188 493.972656 484.421875 492.304688 L 505.148438 496.726562 Z M 534.5 502.992188 L 505.386719 522.109375 C 504 521.011719 502.125 520.566406 500.292969 521.089844 C 499.558594 521.292969 498.902344 521.640625 498.339844 522.082031 L 482.988281 498.859375 L 506.449219 497.003906 Z M 544.640625 495.367188 C 544.71875 495.636719 544.816406 495.890625 544.929688 496.140625 L 536.734375 501.523438 L 513.09375 496.480469 L 544.433594 494.003906 C 544.449219 494.457031 544.511719 494.910156 544.640625 495.367188 Z M 583.472656 547.863281 L 576.644531 554.640625 C 566.550781 550.511719 552.589844 544.785156 538.878906 539.164062 C 527.761719 534.609375 516.65625 530.050781 507.539062 526.316406 C 507.515625 525.882812 507.453125 525.449219 507.332031 525.015625 C 507.03125 523.957031 506.445312 523.058594 505.6875 522.367188 L 535.023438 503.101562 L 559.582031 508.339844 Z M 607.648438 523.855469 L 583.75 547.585938 L 560.089844 508.449219 L 606.128906 518.273438 C 606.089844 519.261719 606.195312 520.269531 606.480469 521.273438 C 606.746094 522.210938 607.144531 523.074219 607.648438 523.855469 Z M 618.207031 527.820312 C 618.765625 527.664062 619.289062 527.457031 619.792969 527.210938 L 637.058594 558.1875 L 597.257812 560.042969 C 596.175781 557.402344 593.253906 555.933594 590.441406 556.730469 C 590.113281 556.828125 589.796875 556.953125 589.5 557.09375 L 584.761719 549.257812 L 608.84375 525.34375 C 611.203125 527.734375 614.753906 528.796875 618.207031 527.820312 Z M 639.386719 558.460938 L 645.636719 558.167969 C 645.625 558.726562 645.695312 559.300781 645.855469 559.867188 C 646.375 561.707031 647.746094 563.074219 649.421875 563.675781 L 646.96875 572.0625 Z M 651.347656 601.246094 L 639.261719 599.882812 L 646.617188 575.335938 L 656.976562 593.921875 C 653.90625 595.242188 651.824219 598.058594 651.347656 601.246094 Z M 639.492188 610.640625 C 640.875 609.226562 641.484375 607.140625 640.90625 605.101562 C 640.53125 603.769531 639.707031 602.683594 638.644531 601.953125 L 638.710938 601.734375 L 651.261719 603.144531 C 651.300781 603.835938 651.410156 604.53125 651.605469 605.226562 C 652.191406 607.292969 653.414062 609.003906 655.003906 610.203125 L 649.226562 625.765625 Z M 637.417969 611.988281 C 638.097656 611.738281 638.699219 611.367188 639.210938 610.90625 L 649.0625 626.210938 L 642.726562 643.277344 Z M 633.679688 667.648438 L 612.890625 640.917969 C 614.511719 639.515625 615.273438 637.253906 614.652344 635.054688 C 614.398438 634.179688 613.957031 633.410156 613.382812 632.78125 L 632.113281 611.289062 C 633.476562 612.261719 635.246094 612.632812 636.980469 612.140625 C 637.003906 612.132812 637.027344 612.121094 637.054688 612.113281 L 642.460938 643.988281 Z M 647.3125 685.175781 L 635.050781 669.414062 L 643.101562 647.734375 L 649.339844 684.53125 C 649.050781 684.566406 648.761719 684.617188 648.46875 684.703125 C 648.054688 684.816406 647.671875 684.980469 647.3125 685.175781 Z M 627.984375 715.921875 C 628.757812 714.03125 628.925781 711.878906 628.324219 709.761719 C 628.09375 708.941406 627.757812 708.179688 627.339844 707.480469 L 645.910156 694.128906 C 647.257812 695.527344 649.273438 696.1875 651.273438 695.738281 L 654.949219 728.332031 Z M 619.457031 721.847656 C 620.226562 721.824219 621.007812 721.710938 621.777344 721.492188 C 623.972656 720.867188 625.769531 719.523438 626.976562 717.785156 L 655.214844 730.667969 L 658.390625 758.839844 L 620.597656 778.289062 Z M 611.898438 782.765625 C 610.941406 781.398438 609.535156 780.503906 608.035156 780.300781 L 616.960938 721.585938 C 617.160156 721.632812 617.355469 721.675781 617.554688 721.710938 L 618.714844 779.253906 Z M 613.117188 786.085938 C 613.074219 785.667969 613 785.246094 612.878906 784.824219 C 612.703125 784.191406 612.4375 783.609375 612.109375 783.082031 L 618.722656 779.679688 L 618.875 787.03125 Z M 604.652344 790.925781 C 605.992188 792.09375 607.742188 792.601562 609.421875 792.125 C 611.765625 791.460938 613.222656 789.101562 613.136719 786.472656 L 618.882812 787.417969 L 619.703125 828.054688 C 619.171875 828.109375 618.644531 828.210938 618.113281 828.359375 C 615.695312 829.046875 613.761719 830.613281 612.5625 832.613281 L 593.292969 824.191406 Z M 566.378906 757.175781 L 571.339844 753.070312 L 603.0625 783 C 602.367188 784.351562 602.171875 786.042969 602.648438 787.730469 C 602.976562 788.886719 603.582031 789.878906 604.34375 790.644531 L 592.945312 824.042969 L 574.519531 815.996094 Z M 529.675781 796.402344 C 530.199219 794.707031 530.253906 792.851562 529.734375 791.023438 C 529.472656 790.082031 529.070312 789.21875 528.566406 788.441406 L 566.03125 757.460938 L 574.113281 815.8125 Z M 509.332031 741.90625 L 559.679688 746.429688 C 559.660156 747.105469 559.734375 747.804688 559.933594 748.5 C 560.117188 749.148438 560.386719 749.738281 560.722656 750.269531 L 526.933594 786.542969 C 524.714844 784.554688 521.609375 783.652344 518.527344 784.34375 Z M 467.851562 741.214844 C 468.386719 740.335938 468.6875 739.316406 468.6875 738.257812 L 507.351562 741.730469 L 516.71875 784.945312 C 515.949219 785.289062 515.242188 785.722656 514.613281 786.238281 Z M 454.714844 760.769531 L 460.992188 743.582031 C 462.09375 743.992188 463.328125 744.078125 464.546875 743.730469 C 465.851562 743.363281 466.914062 742.566406 467.640625 741.539062 L 514.320312 786.484375 C 513.371094 787.320312 512.601562 788.339844 512.054688 789.464844 Z M 458.496094 741.746094 C 459.066406 742.480469 459.808594 743.058594 460.640625 743.4375 L 454.371094 760.597656 L 443.4375 755.128906 Z M 395.539062 731.160156 C 396.394531 729.257812 396.628906 727.070312 396.070312 724.90625 L 428.539062 710.824219 L 459.117188 734.074219 C 457.601562 735.484375 456.90625 737.671875 457.507812 739.804688 C 457.679688 740.402344 457.941406 740.949219 458.273438 741.4375 L 443.074219 754.945312 Z M 394.589844 732.808594 L 441.542969 756.304688 L 403.550781 790.066406 L 389.320312 736.449219 C 389.367188 736.433594 389.417969 736.425781 389.464844 736.410156 C 391.617188 735.800781 393.382812 734.496094 394.589844 732.808594 Z M 392.355469 719.515625 C 391.773438 719.105469 391.144531 718.761719 390.488281 718.488281 L 396.011719 704.074219 Z M 401.378906 693.699219 C 402.402344 693.410156 403.273438 692.855469 403.957031 692.132812 L 426.644531 709.386719 L 395.367188 723.015625 C 394.714844 721.714844 393.792969 720.617188 392.6875 719.757812 L 397.035156 701.410156 L 399.90625 693.910156 C 400.394531 693.902344 400.886719 693.839844 401.378906 693.699219 Z M 379.105469 635.839844 L 420.363281 635.226562 L 402.0625 682.976562 C 400.90625 682.484375 399.578125 682.363281 398.269531 682.734375 C 397.824219 682.859375 397.414062 683.039062 397.027344 683.257812 L 375.695312 640.03125 C 377.503906 639.285156 378.753906 637.683594 379.105469 635.839844 Z M 373.445312 629.078125 C 372.953125 629.085938 372.453125 629.148438 371.957031 629.289062 C 370.6875 629.648438 369.640625 630.417969 368.917969 631.40625 L 338.667969 603.71875 L 345.496094 590.414062 L 373.515625 582.933594 Z M 401.625 575.429688 L 410.585938 586.289062 L 377.167969 630.402344 C 376.234375 629.621094 375.0625 629.15625 373.824219 629.085938 L 373.894531 582.832031 Z M 419.074219 570.378906 L 403.378906 574.570312 L 379.332031 545.417969 C 379.765625 544.929688 380.148438 544.394531 380.472656 543.828125 L 419.710938 566.933594 C 419.152344 567.960938 418.914062 569.160156 419.074219 570.378906 Z M 427.527344 574.597656 L 439.449219 594.5625 L 436.101562 604.558594 C 434.167969 603.726562 431.945312 603.53125 429.765625 604.148438 C 429.234375 604.296875 428.730469 604.488281 428.253906 604.722656 L 412.011719 585.03125 L 420.648438 573.632812 C 422.0625 575.070312 424.195312 575.714844 426.273438 575.125 C 426.722656 574.996094 427.140625 574.8125 427.527344 574.597656 Z M 480.589844 589.882812 L 447.085938 577.734375 L 456.027344 551.027344 L 496.382812 528.183594 C 496.894531 529.914062 498.15625 531.214844 499.710938 531.847656 Z M 506.464844 537.824219 L 527.269531 592.082031 L 501.730469 597.546875 L 480.949219 590.015625 L 500.066406 531.984375 C 500.910156 532.261719 501.824219 532.34375 502.746094 532.195312 Z M 547.800781 583.285156 C 545.445312 580.914062 541.90625 579.859375 538.464844 580.832031 C 538.101562 580.9375 537.753906 581.0625 537.410156 581.203125 L 504.597656 531.558594 C 506.371094 530.582031 507.488281 528.734375 507.546875 526.730469 C 516.636719 530.457031 527.679688 534.984375 538.734375 539.515625 C 551.886719 544.910156 565.042969 550.304688 574.914062 554.34375 C 575.402344 554.542969 575.878906 554.738281 576.351562 554.933594 Z M 586.84375 559.222656 C 586.929688 559.257812 587.007812 559.289062 587.089844 559.320312 C 586.324219 560.617188 586.070312 562.207031 586.511719 563.769531 C 586.59375 564.058594 586.699219 564.332031 586.824219 564.59375 C 585.707031 565.59375 584.324219 566.84375 582.59375 568.410156 C 578.046875 572.535156 571.738281 578.300781 563.851562 585.554688 C 561.957031 587.296875 560.058594 589.046875 558.191406 590.761719 L 550.554688 589.902344 C 550.542969 589.066406 550.429688 588.222656 550.191406 587.378906 C 549.921875 586.429688 549.519531 585.554688 549.003906 584.769531 L 578.261719 555.714844 C 581.71875 557.128906 584.644531 558.324219 586.84375 559.222656 Z M 587.296875 558.996094 C 585.085938 558.09375 582.105469 556.875 578.558594 555.425781 L 584.484375 549.535156 L 589.164062 557.273438 C 588.410156 557.707031 587.769531 558.296875 587.296875 558.996094 Z M 599.441406 595.402344 L 558.691406 590.816406 C 569.832031 580.554688 580.984375 570.335938 586.996094 564.949219 C 588.144531 567.050781 590.523438 568.238281 592.929688 567.835938 Z M 628.46875 598.667969 L 599.84375 595.449219 L 593.300781 567.753906 C 593.382812 567.734375 593.464844 567.722656 593.546875 567.695312 C 594.519531 567.421875 595.355469 566.910156 596.023438 566.242188 Z M 631.230469 600.890625 L 633.835938 601.183594 C 633.261719 601.351562 632.730469 601.605469 632.261719 601.917969 Z M 610.105469 709.582031 L 583.503906 702.371094 C 587.167969 693.378906 590.835938 684.378906 594.5 675.386719 L 613.136719 705.03125 C 611.695312 706.222656 610.644531 707.8125 610.105469 709.582031 Z M 612.472656 719.066406 C 613.617188 720.210938 615.039062 721.046875 616.589844 721.488281 L 607.660156 780.257812 C 607.144531 780.230469 606.621094 780.28125 606.105469 780.429688 C 604.882812 780.777344 603.898438 781.585938 603.25 782.65625 L 571.636719 752.828125 Z M 569.484375 750.792969 C 570.394531 749.378906 570.703125 747.484375 570.167969 745.597656 C 569.980469 744.941406 569.703125 744.339844 569.359375 743.796875 L 610.480469 716.140625 C 610.699219 716.65625 610.964844 717.140625 611.265625 717.597656 L 570.246094 751.511719 Z M 565.804688 753.054688 C 566.109375 753.03125 566.410156 752.984375 566.707031 752.898438 C 567.757812 752.601562 568.632812 751.960938 569.265625 751.113281 L 569.949219 751.757812 L 566.070312 754.964844 Z M 536.191406 691.515625 L 582.410156 704.042969 C 577.300781 716.578125 572.195312 729.113281 567.082031 741.648438 C 565.949219 741.039062 564.652344 740.84375 563.394531 741.203125 C 563.113281 741.28125 562.851562 741.390625 562.597656 741.515625 Z M 509.234375 741.460938 L 528.605469 743.257812 L 509.246094 741.519531 Z M 463.59375 695.625 L 485.960938 685.921875 C 487.929688 689.578125 492.121094 691.589844 496.292969 690.699219 L 499.859375 707.15625 L 466.675781 733.898438 C 465.808594 733.167969 464.738281 732.707031 463.601562 732.585938 Z M 463.214844 695.785156 L 463.222656 732.554688 C 462.636719 732.535156 462.035156 732.597656 461.4375 732.765625 C 460.671875 732.984375 459.988281 733.347656 459.40625 733.820312 L 428.9375 710.652344 Z M 405.304688 686.664062 C 405.140625 686.074219 404.886719 685.539062 404.566406 685.054688 L 456.410156 640.359375 L 463.203125 648.226562 L 463.214844 693.453125 L 427.042969 709.210938 L 404.210938 691.851562 C 405.363281 690.457031 405.835938 688.535156 405.304688 686.664062 Z M 422.410156 635.195312 L 451.582031 634.765625 L 456.164062 640.070312 L 404.339844 684.746094 C 404.144531 684.492188 403.925781 684.257812 403.691406 684.039062 Z M 378.8125 632.679688 L 423.199219 615.800781 C 423.203125 615.828125 423.210938 615.851562 423.21875 615.878906 C 423.730469 617.6875 424.738281 619.226562 426.050781 620.390625 L 420.511719 634.84375 L 379.171875 635.460938 C 379.257812 634.730469 379.207031 633.96875 378.996094 633.21875 C 378.941406 633.035156 378.882812 632.855469 378.8125 632.679688 Z M 451.261719 634.390625 L 422.558594 634.816406 L 427.648438 621.53125 C 429.785156 622.75 432.390625 623.148438 434.945312 622.421875 C 436.503906 621.980469 437.855469 621.175781 438.945312 620.125 Z M 441.800781 612.316406 L 449.109375 610.75 L 460.496094 629.828125 C 459.128906 630.890625 458.304688 632.535156 458.292969 634.285156 L 453.738281 634.355469 L 440.1875 618.65625 C 441.433594 616.839844 442.039062 614.601562 441.800781 612.316406 Z M 440.730469 596.714844 L 448.082031 609.027344 L 441.417969 610.453125 C 440.769531 608.371094 439.460938 606.660156 437.789062 605.5 Z M 445.175781 577.449219 L 439.605469 594.089844 L 427.855469 574.402344 C 428.785156 573.789062 429.503906 572.925781 429.941406 571.929688 Z M 476.269531 602.996094 L 448.472656 608.945312 L 440.890625 596.238281 L 446.964844 578.097656 L 480.472656 590.246094 Z M 476.703125 602.902344 L 480.828125 590.375 L 501.03125 597.695312 Z M 531.230469 608.644531 L 528.949219 613.050781 L 469.277344 632.210938 C 468.941406 631.359375 468.410156 630.632812 467.753906 630.058594 L 476.011719 604.996094 L 504.398438 598.917969 Z M 532.605469 605.996094 L 531.40625 608.304688 L 505.097656 598.769531 L 527.957031 593.875 Z M 531.628906 591.148438 L 527.644531 592 L 507.433594 539.292969 L 535.730469 582.105469 C 532.8125 584.078125 531.175781 587.570312 531.628906 591.148438 Z M 540.664062 606.933594 C 539.253906 605.53125 537.148438 604.910156 535.097656 605.492188 C 535.058594 605.503906 535.023438 605.519531 534.984375 605.53125 L 538.335938 599.070312 C 540.007812 599.570312 541.839844 599.621094 543.644531 599.109375 C 544.46875 598.878906 545.238281 598.539062 545.9375 598.117188 L 547.507812 600.613281 C 544.824219 603.089844 542.476562 605.257812 540.664062 606.933594 Z M 558.769531 618.53125 C 553.074219 616.5625 547.460938 614.566406 542.125 612.542969 C 542.410156 611.558594 542.4375 610.480469 542.136719 609.421875 C 541.894531 608.574219 541.46875 607.828125 540.925781 607.210938 C 543.0625 605.234375 545.34375 603.125 547.710938 600.9375 Z M 548.925781 599.300781 L 547.464844 596.980469 C 548.964844 595.605469 549.984375 593.78125 550.375 591.792969 L 556.34375 592.464844 C 553.738281 594.863281 551.226562 597.175781 548.925781 599.300781 Z M 604.003906 634.203125 C 594.289062 630.539062 583.6875 626.964844 573.375 623.492188 C 569.480469 622.179688 565.542969 620.851562 561.628906 619.511719 L 549.132812 599.625 C 551.640625 597.3125 554.230469 594.921875 556.839844 592.519531 L 599.90625 597.363281 L 607.867188 631.070312 C 607.78125 631.089844 607.695312 631.105469 607.613281 631.125 C 605.953125 631.597656 604.679688 632.757812 604.003906 634.203125 Z M 582.523438 652.753906 L 604.574219 639.976562 C 605.339844 641.015625 606.429688 641.761719 607.65625 642.097656 C 603.484375 652.339844 599.308594 662.582031 595.136719 672.824219 Z M 527.316406 685.519531 C 528.703125 686.613281 530.574219 687.054688 532.402344 686.539062 C 532.617188 686.476562 532.820312 686.402344 533.019531 686.320312 L 534.480469 689.082031 L 525.8125 686.734375 Z M 503.792969 680.765625 C 503.75 680.121094 503.636719 679.46875 503.453125 678.820312 C 502.828125 676.605469 501.464844 674.800781 499.707031 673.589844 L 505.015625 663.347656 L 526.085938 677.933594 C 525.214844 679.269531 524.898438 680.957031 525.367188 682.609375 C 525.667969 683.675781 526.257812 684.578125 527.023438 685.269531 L 525.355469 686.613281 Z M 498.109375 690.117188 C 501.191406 688.78125 503.277344 685.929688 503.726562 682.714844 L 523.53125 688.082031 L 501.511719 705.824219 Z M 462.433594 628.847656 C 461.839844 629.015625 461.292969 629.273438 460.804688 629.605469 L 449.503906 610.667969 L 475.582031 605.085938 L 467.4375 629.800781 C 466.0625 628.753906 464.226562 628.335938 462.433594 628.847656 Z M 532.839844 605.542969 L 528.335938 593.796875 L 532.054688 593 C 532.847656 595.375 534.503906 597.238281 536.570312 598.34375 Z M 536.222656 616.652344 L 531.765625 675.433594 C 530.964844 675.304688 530.125 675.335938 529.292969 675.570312 C 528.050781 675.925781 527.027344 676.667969 526.304688 677.625 L 505.191406 663.007812 L 531.242188 612.75 C 531.976562 614.988281 533.980469 616.480469 536.222656 616.652344 Z M 580.675781 653.386719 L 536.214844 679.15625 C 535.550781 677.273438 533.980469 675.933594 532.140625 675.503906 L 536.601562 616.671875 C 537.132812 616.675781 537.671875 616.609375 538.207031 616.457031 C 540.042969 615.9375 541.40625 614.574219 542.007812 612.90625 C 547.480469 614.984375 553.246094 617.027344 559.089844 619.042969 Z M 604.355469 639.660156 L 582.320312 652.433594 L 561.953125 620.023438 C 565.71875 621.3125 569.507812 622.589844 573.253906 623.851562 C 583.558594 627.324219 594.148438 630.894531 603.859375 634.554688 C 603.425781 635.667969 603.332031 636.925781 603.683594 638.164062 C 603.835938 638.707031 604.070312 639.207031 604.355469 639.660156 Z M 469.402344 632.570312 L 528.699219 613.53125 L 503.617188 661.917969 L 468.597656 637.675781 C 469.585938 636.308594 469.96875 634.523438 469.472656 632.773438 C 469.453125 632.703125 469.425781 632.640625 469.402344 632.570312 Z M 463.582031 645.757812 L 463.582031 640.007812 C 464.222656 640.054688 464.886719 640 465.542969 639.8125 C 466.691406 639.488281 467.65625 638.832031 468.363281 637.976562 L 503.441406 662.257812 L 498.039062 672.675781 C 496.113281 671.851562 493.898438 671.65625 491.726562 672.273438 C 490.359375 672.660156 489.148438 673.332031 488.136719 674.199219 Z M 486.816406 675.582031 C 485.050781 677.859375 484.34375 680.90625 485.152344 683.890625 L 463.59375 693.285156 L 463.582031 648.664062 Z M 459.4375 637.75 C 460.347656 638.960938 461.707031 639.761719 463.199219 639.972656 L 463.199219 645.316406 L 457.847656 639.117188 Z M 459.210938 637.4375 L 457.601562 638.828125 L 454.0625 634.726562 L 458.300781 634.664062 C 458.328125 635.070312 458.390625 635.476562 458.503906 635.882812 C 458.667969 636.449219 458.90625 636.972656 459.210938 637.4375 Z M 534.980469 689.21875 L 533.367188 686.164062 C 535.78125 684.976562 537.085938 682.207031 536.335938 679.523438 L 580.878906 653.707031 L 594.253906 674.988281 C 590.546875 684.082031 586.839844 693.175781 583.132812 702.269531 Z M 610.332031 715.78125 L 569.152344 743.480469 C 568.667969 742.808594 568.074219 742.253906 567.414062 741.839844 C 572.539062 729.273438 577.660156 716.710938 582.777344 704.144531 L 609.734375 711.449219 C 609.621094 712.59375 609.71875 713.769531 610.050781 714.945312 C 610.132812 715.230469 610.226562 715.507812 610.332031 715.78125 Z M 429.246094 566.1875 L 453.554688 552.425781 L 445.296875 577.089844 L 430.078125 571.570312 C 430.46875 570.488281 430.542969 569.28125 430.203125 568.089844 C 430 567.378906 429.671875 566.738281 429.246094 566.1875 Z M 426.613281 605.71875 C 424.105469 607.621094 422.667969 610.691406 422.875 613.894531 L 377.804688 631.03125 C 377.691406 630.902344 377.574219 630.777344 377.449219 630.65625 L 410.832031 586.589844 Z M 420.390625 573.34375 L 411.761719 584.730469 L 403.644531 574.890625 L 419.136719 570.753906 C 419.164062 570.902344 419.195312 571.050781 419.238281 571.195312 C 419.46875 572.011719 419.871094 572.734375 420.390625 573.34375 Z M 507.253906 741.273438 L 507.265625 741.339844 L 468.675781 737.875 C 468.671875 737.816406 468.664062 737.753906 468.660156 737.691406 Z M 468.609375 737.308594 C 468.578125 737.105469 468.53125 736.898438 468.476562 736.695312 C 468.191406 735.691406 467.652344 734.835938 466.953125 734.160156 L 499.949219 707.574219 L 507.167969 740.886719 Z M 565.425781 753.070312 L 565.726562 755.25 L 527.375 786.957031 C 527.320312 786.90625 527.269531 786.851562 527.210938 786.796875 L 560.9375 750.597656 C 562.035156 752.132812 563.703125 753.070312 565.425781 753.070312 Z M 559.734375 745.761719 L 509.152344 741.070312 L 501.601562 706.238281 L 523.980469 688.207031 L 535.691406 691.382812 L 562.265625 741.695312 C 560.878906 742.523438 559.964844 744.03125 559.734375 745.761719 Z M 620.574219 702.957031 C 619.28125 702.765625 617.933594 702.835938 616.597656 703.214844 C 615.929688 703.402344 615.300781 703.660156 614.714844 703.976562 L 595.382812 673.21875 C 599.597656 662.878906 603.816406 652.535156 608.03125 642.191406 C 608.894531 642.367188 609.8125 642.347656 610.71875 642.09375 C 611.421875 641.894531 612.046875 641.570312 612.59375 641.15625 L 633.523438 668.070312 Z M 634.796875 699.78125 L 626.207031 705.957031 C 626.136719 705.875 626.058594 705.792969 625.980469 705.710938 Z M 644.84375 692.554688 L 644.675781 692.675781 L 625.703125 705.441406 C 624.757812 704.550781 623.640625 703.867188 622.425781 703.425781 L 634.894531 669.832031 L 646.976562 685.371094 C 644.898438 686.683594 643.835938 689.25 644.542969 691.738281 C 644.621094 692.023438 644.730469 692.292969 644.84375 692.554688 Z M 631.8125 611.058594 L 613.117188 632.507812 C 611.847656 631.289062 610.054688 630.6875 608.238281 630.988281 L 600.304688 597.414062 L 630.625 600.824219 L 631.945312 602.144531 C 630.160156 603.527344 629.289062 605.902344 629.941406 608.210938 C 630.273438 609.375 630.941406 610.347656 631.8125 611.058594 Z M 638.296875 601.6875 L 638.28125 601.730469 C 638.253906 601.710938 638.222656 601.691406 638.191406 601.675781 Z M 597.394531 560.417969 L 637.265625 558.558594 L 646.21875 574.617188 L 638.839844 599.835938 L 629.074219 598.738281 L 596.28125 565.964844 C 597.503906 564.558594 598.023438 562.585938 597.476562 560.660156 C 597.453125 560.578125 597.421875 560.5 597.394531 560.417969 Z M 497.011719 523.566406 C 496.25 524.792969 495.957031 526.296875 496.292969 527.800781 L 456.207031 550.488281 L 467.890625 515.589844 Z M 473.363281 499.238281 L 473.5625 498.644531 C 474.988281 498.925781 476.496094 498.886719 477.992188 498.464844 C 478.679688 498.269531 479.324219 498 479.929688 497.675781 L 480.585938 498.667969 Z M 480.824219 499.03125 L 496.730469 523.09375 L 468.011719 515.226562 L 473.230469 499.628906 Z M 422.75 512.835938 L 422.621094 507.894531 C 423.25 507.9375 423.894531 507.878906 424.535156 507.695312 C 426.164062 507.234375 427.421875 506.105469 428.105469 504.6875 L 435.816406 506.800781 Z M 438.660156 507.578125 L 466.054688 515.085938 L 453.734375 551.886719 L 429 565.886719 C 427.789062 564.507812 425.953125 563.769531 424.070312 563.988281 L 422.804688 514.90625 Z M 373.945312 549.339844 L 373.945312 548.453125 C 374.238281 548.398438 374.53125 548.332031 374.820312 548.25 C 374.933594 548.214844 375.042969 548.179688 375.152344 548.144531 Z M 376.027344 547.816406 C 376.714844 547.515625 377.351562 547.140625 377.933594 546.707031 L 401.359375 575.109375 L 373.894531 582.4375 L 373.945312 549.875 Z M 440.621094 799.355469 L 454.058594 762.566406 L 511.398438 791.257812 C 511.191406 792.070312 511.085938 792.910156 511.101562 793.765625 L 443.621094 803.507812 C 443.597656 803.410156 443.578125 803.3125 443.550781 803.214844 C 443.0625 801.488281 441.964844 800.128906 440.621094 799.355469 Z M 579.382812 853.863281 L 579.589844 855.371094 C 579.460938 855.398438 579.328125 855.425781 579.191406 855.460938 C 578.378906 855.695312 577.660156 856.09375 577.054688 856.609375 L 575.832031 855.203125 Z M 574.5 853.671875 L 527.746094 799.867188 C 528.207031 799.339844 528.605469 798.765625 528.941406 798.152344 L 574.417969 818.019531 L 579.117188 851.9375 Z M 647.78125 553.863281 C 646.578125 554.824219 645.808594 556.246094 645.667969 557.789062 L 639.179688 558.089844 L 621.40625 526.210938 C 621.53125 526.113281 621.652344 526.011719 621.769531 525.910156 Z M 624.523438 521.96875 L 649.292969 552.996094 C 648.859375 553.164062 648.453125 553.378906 648.085938 553.632812 L 622.054688 525.660156 C 623.160156 524.636719 624 523.371094 624.523438 521.96875 Z M 551.675781 499.292969 C 552.371094 499.09375 553 498.769531 553.546875 498.363281 L 558.230469 506.109375 L 537.253906 501.636719 L 545.09375 496.488281 C 546.324219 498.808594 549.046875 500.042969 551.675781 499.292969 Z M 380.503906 534.441406 L 396.472656 527.066406 L 381.234375 542.132812 C 381.824219 540.378906 381.910156 538.433594 381.371094 536.519531 C 381.160156 535.777344 380.863281 535.085938 380.503906 534.441406 Z M 313.265625 712.289062 L 337.261719 682.238281 L 358.0625 701.777344 L 314.777344 715.183594 C 314.746094 715.027344 314.714844 714.871094 314.667969 714.714844 C 314.402344 713.765625 313.90625 712.945312 313.265625 712.289062 Z M 470.414062 870.640625 L 454.660156 837.164062 L 512.339844 798.304688 C 513.410156 800.191406 515.082031 801.621094 517.027344 802.414062 L 513.570312 869.863281 C 513.394531 869.902344 513.222656 869.945312 513.046875 869.996094 L 477.285156 874.898438 C 477.265625 874.808594 477.246094 874.714844 477.222656 874.621094 C 476.386719 871.671875 473.371094 869.933594 470.414062 870.640625 Z M 651.945312 792.480469 L 620.777344 787.347656 L 620.605469 778.710938 L 658.433594 759.242188 L 660.800781 780.1875 Z M 660.835938 788.210938 C 658.648438 788.832031 657.234375 790.921875 657.125 793.332031 L 654.035156 792.824219 L 661.117188 783 L 661.683594 788.0625 C 661.402344 788.085938 661.117188 788.132812 660.835938 788.210938 Z M 681.269531 740.445312 L 655.351562 728.515625 L 651.640625 695.644531 C 652.027344 695.53125 652.390625 695.378906 652.730469 695.195312 L 683.371094 737.527344 C 682.488281 738.359375 681.777344 739.351562 681.269531 740.445312 Z M 689.128906 578.796875 C 688.273438 575.765625 685.121094 574.007812 682.09375 574.863281 C 681.542969 575.023438 681.03125 575.257812 680.566406 575.550781 L 624.902344 520.648438 C 625.21875 519.1875 625.191406 517.628906 624.757812 516.089844 C 623.324219 511.042969 618.074219 508.113281 613.027344 509.542969 C 610.375 510.292969 608.316406 512.101562 607.160156 514.378906 L 555.628906 495.257812 C 555.878906 494.304688 555.894531 493.273438 555.605469 492.257812 C 554.746094 489.226562 551.597656 487.46875 548.570312 488.328125 C 546.59375 488.886719 545.160156 490.421875 544.640625 492.261719 L 484.894531 489.046875 C 484.875 488.28125 484.757812 487.503906 484.539062 486.734375 C 483.109375 481.6875 477.855469 478.757812 472.8125 480.1875 C 468.1875 481.5 465.339844 486.019531 465.996094 490.648438 L 427.820312 499.214844 C 426.515625 497.105469 423.929688 496.019531 421.425781 496.730469 C 418.425781 497.582031 416.675781 500.683594 417.476562 503.6875 L 378.15625 531.691406 C 375.839844 529.847656 372.707031 529.105469 369.640625 529.972656 C 364.59375 531.402344 361.664062 536.652344 363.09375 541.699219 C 363.402344 542.785156 363.886719 543.765625 364.507812 544.628906 L 329.746094 588.855469 C 328.648438 588.3125 327.410156 588.148438 326.207031 588.488281 C 323.378906 589.289062 321.832031 592.558594 322.746094 595.789062 C 323.152344 597.21875 323.976562 598.398438 325.011719 599.203125 L 311.957031 649.777344 C 311.089844 649.773438 310.207031 649.890625 309.328125 650.136719 C 304.28125 651.570312 301.351562 656.820312 302.78125 661.867188 C 303.726562 665.207031 306.347656 667.617188 309.472656 668.453125 L 308.414062 710.628906 C 308.152344 710.664062 307.890625 710.710938 307.632812 710.785156 C 304.601562 711.644531 302.84375 714.792969 303.703125 717.824219 C 304.527344 720.726562 307.453125 722.453125 310.359375 721.839844 L 336.558594 777.164062 C 332.234375 779.019531 329.855469 783.832031 331.171875 788.476562 C 332.601562 793.523438 337.855469 796.453125 342.898438 795.023438 C 344.347656 794.613281 345.621094 793.886719 346.667969 792.941406 L 357.402344 802.566406 L 365.035156 816.027344 C 363.359375 817.414062 362.59375 819.921875 363.300781 822.410156 C 364.21875 825.640625 367.25 827.609375 370.078125 826.808594 C 372.636719 826.082031 374.140625 823.335938 373.722656 820.425781 L 376.535156 819.722656 L 413.96875 853.285156 C 411.761719 855.636719 410.808594 859.054688 411.753906 862.378906 C 413.183594 867.429688 418.433594 870.359375 423.480469 868.929688 C 426.28125 868.136719 428.429688 866.164062 429.542969 863.703125 L 466.242188 874.699219 C 465.980469 875.660156 465.964844 876.703125 466.257812 877.730469 C 467.113281 880.757812 470.265625 882.519531 473.292969 881.660156 C 475.511719 881.03125 477.042969 879.167969 477.367188 877.023438 L 506.128906 879.375 C 506.152344 880.15625 506.261719 880.941406 506.484375 881.726562 C 507.914062 886.773438 513.164062 889.707031 518.214844 888.277344 C 523.214844 886.855469 526.136719 881.683594 524.792969 876.675781 L 575.40625 862.917969 C 576.429688 865.6875 579.417969 867.246094 582.300781 866.429688 C 585.328125 865.570312 587.085938 862.417969 586.230469 859.390625 C 586.132812 859.050781 586.003906 858.726562 585.855469 858.417969 L 612.894531 842.894531 C 615.140625 846.148438 619.28125 847.777344 623.296875 846.636719 C 628.34375 845.207031 631.273438 839.953125 629.84375 834.90625 C 629.457031 833.535156 628.785156 832.320312 627.910156 831.308594 L 659.796875 799.042969 C 661.070312 799.96875 662.636719 800.335938 664.148438 799.910156 C 666.972656 799.109375 668.523438 795.839844 667.609375 792.609375 C 667.300781 791.519531 666.746094 790.574219 666.042969 789.832031 L 685.191406 752.6875 C 687.324219 753.902344 689.929688 754.296875 692.476562 753.574219 C 697.523438 752.144531 700.453125 746.890625 699.027344 741.84375 C 698.222656 739.023438 696.230469 736.867188 693.742188 735.761719 L 697.777344 698.671875 C 699.074219 697.261719 699.632812 695.238281 699.074219 693.257812 C 698.9375 692.785156 698.746094 692.347656 698.507812 691.941406 L 702.023438 659.609375 C 704.6875 658.53125 706.164062 655.601562 705.367188 652.777344 C 704.730469 650.527344 702.824219 648.984375 700.648438 648.6875 L 686.019531 585.523438 C 688.535156 584.371094 689.90625 581.535156 689.128906 578.796875 " fill-opacity="1" fill-rule="nonzero"/></g><g fill="#ff3131" fill-opacity="1"><g transform="translate(193.606134, 737.860763)"><g><path d="M 82.078125 0 L 10.109375 0 L 10.109375 -108.71875 L 82.078125 -108.71875 L 82.078125 -92.46875 L 28.21875 -92.46875 L 28.21875 -62.546875 L 76.09375 -62.546875 L 76.09375 -46.453125 L 28.21875 -46.453125 L 28.21875 -16.25 L 82.078125 -16.25 Z M 82.078125 0 "/></g></g></g><g fill="#ffde59" fill-opacity="1"><g transform="translate(281.801439, 737.860763)"><g><path d="M 52 1.859375 C 46.78125 1.859375 41.554688 1.21875 36.328125 -0.0625 C 31.109375 -1.351562 26.3125 -3.421875 21.9375 -6.265625 C 17.570312 -9.117188 13.914062 -12.867188 10.96875 -17.515625 C 8.019531 -22.171875 6.171875 -27.828125 5.421875 -34.484375 L 23.796875 -34.484375 C 25.023438 -29.160156 27.113281 -24.976562 30.0625 -21.9375 C 33.007812 -18.90625 36.453125 -16.769531 40.390625 -15.53125 C 44.335938 -14.289062 48.304688 -13.671875 52.296875 -13.671875 C 58.660156 -13.671875 63.835938 -15.023438 67.828125 -17.734375 C 71.816406 -20.441406 73.8125 -24.550781 73.8125 -30.0625 C 73.8125 -34.332031 72.503906 -37.628906 69.890625 -39.953125 C 67.273438 -42.285156 63.878906 -44.09375 59.703125 -45.375 C 55.523438 -46.664062 51.015625 -47.832031 46.171875 -48.875 C 41.796875 -49.820312 37.421875 -50.890625 33.046875 -52.078125 C 28.679688 -53.265625 24.691406 -54.925781 21.078125 -57.0625 C 17.472656 -59.195312 14.578125 -62.019531 12.390625 -65.53125 C 10.210938 -69.050781 9.125 -73.613281 9.125 -79.21875 C 9.125 -85.96875 10.757812 -91.644531 14.03125 -96.25 C 17.3125 -100.851562 21.773438 -104.363281 27.421875 -106.78125 C 33.078125 -109.207031 39.46875 -110.421875 46.59375 -110.421875 C 53.332031 -110.421875 59.691406 -109.253906 65.671875 -106.921875 C 71.660156 -104.597656 76.742188 -100.988281 80.921875 -96.09375 C 85.109375 -91.207031 87.769531 -84.914062 88.90625 -77.21875 L 70.8125 -77.21875 C 69.289062 -83.488281 66.273438 -88 61.765625 -90.75 C 57.253906 -93.507812 52.101562 -94.890625 46.3125 -94.890625 C 40.507812 -94.890625 35.875 -93.65625 32.40625 -91.1875 C 28.945312 -88.71875 27.21875 -85.25 27.21875 -80.78125 C 27.21875 -77.082031 28.425781 -74.1875 30.84375 -72.09375 C 33.269531 -70.007812 36.429688 -68.394531 40.328125 -67.25 C 44.222656 -66.113281 48.445312 -65.019531 53 -63.96875 C 57.5625 -63.019531 62.117188 -61.878906 66.671875 -60.546875 C 71.234375 -59.222656 75.414062 -57.441406 79.21875 -55.203125 C 83.019531 -52.972656 86.082031 -49.9375 88.40625 -46.09375 C 90.738281 -42.25 91.90625 -37.285156 91.90625 -31.203125 C 91.90625 -21.128906 88.4375 -13.097656 81.5 -7.109375 C 74.5625 -1.128906 64.726562 1.859375 52 1.859375 Z M 52 1.859375 "/></g></g></g><g fill="#ff3131" fill-opacity="1"><g transform="translate(379.969402, 737.860763)"><g><path d="M 28.21875 0 L 10.109375 0 L 10.109375 -108.71875 L 55 -108.71875 C 61.84375 -108.71875 67.828125 -107.597656 72.953125 -105.359375 C 78.078125 -103.128906 82.085938 -99.6875 84.984375 -95.03125 C 87.890625 -90.382812 89.34375 -84.351562 89.34375 -76.9375 C 89.34375 -70.101562 87.914062 -64.265625 85.0625 -59.421875 C 82.207031 -54.578125 78.191406 -50.847656 73.015625 -48.234375 C 67.847656 -45.617188 61.84375 -44.3125 55 -44.3125 L 28.21875 -44.3125 Z M 28.21875 -92.46875 L 28.21875 -60.125 L 52.578125 -60.125 C 58.753906 -60.125 63.457031 -61.523438 66.6875 -64.328125 C 69.914062 -67.128906 71.53125 -71.144531 71.53125 -76.375 C 71.53125 -81.59375 69.890625 -85.578125 66.609375 -88.328125 C 63.335938 -91.085938 58.660156 -92.46875 52.578125 -92.46875 Z M 28.21875 -92.46875 "/></g></g></g><g fill="#162a44" fill-opacity="1"><g transform="translate(473.578769, 737.860763)"><g><path d="M 20.09375 0 L 1.28125 0 L 40.1875 -108.71875 L 60.125 -108.71875 L 99.03125 0 L 80.21875 0 L 72.234375 -23.796875 L 28.21875 -23.796875 Z M 50.15625 -89.34375 L 33.484375 -39.609375 L 66.828125 -39.609375 Z M 50.15625 -89.34375 "/></g></g></g><g fill="#162a44" fill-opacity="1"><g transform="translate(573.882299, 737.860763)"><g><path d="M 37.90625 0 L 27.5 0 C 21.613281 0 17.03125 -1.351562 13.75 -4.0625 C 10.46875 -6.769531 8.828125 -11.539062 8.828125 -18.375 L 8.828125 -108.71875 L 25.640625 -108.71875 L 25.640625 -22.796875 C 25.640625 -19.847656 26.160156 -17.660156 27.203125 -16.234375 C 28.253906 -14.816406 30.253906 -14.109375 33.203125 -14.109375 L 37.90625 -14.109375 Z M 37.90625 0 "/></g></g></g><g fill="#162a44" fill-opacity="1"><g transform="translate(615.627939, 737.860763)"><g><path d="M 45.734375 1.5625 C 37.753906 1.5625 30.796875 -0.21875 24.859375 -3.78125 C 18.921875 -7.34375 14.289062 -12.234375 10.96875 -18.453125 C 7.644531 -24.671875 5.984375 -31.675781 5.984375 -39.46875 C 5.984375 -44.695312 6.8125 -49.78125 8.46875 -54.71875 C 10.132812 -59.65625 12.601562 -64.117188 15.875 -68.109375 C 19.15625 -72.097656 23.242188 -75.253906 28.140625 -77.578125 C 33.035156 -79.910156 38.757812 -81.078125 45.3125 -81.078125 C 52.144531 -81.078125 58.578125 -79.625 64.609375 -76.71875 C 70.648438 -73.820312 75.546875 -69.378906 79.296875 -63.390625 C 83.046875 -57.410156 84.921875 -49.816406 84.921875 -40.609375 L 84.921875 -36.328125 L 23.078125 -36.328125 C 23.273438 -34.804688 23.609375 -33.265625 24.078125 -31.703125 C 24.554688 -30.140625 25.128906 -28.738281 25.796875 -27.5 C 27.691406 -23.03125 30.421875 -19.515625 33.984375 -16.953125 C 37.546875 -14.390625 41.609375 -13.109375 46.171875 -13.109375 C 51.203125 -13.109375 55.425781 -14.4375 58.84375 -17.09375 C 62.257812 -19.757812 64.679688 -22.847656 66.109375 -26.359375 L 83.5 -26.359375 C 81.976562 -21.328125 79.578125 -16.671875 76.296875 -12.390625 C 73.023438 -8.117188 68.867188 -4.722656 63.828125 -2.203125 C 58.796875 0.304688 52.765625 1.5625 45.734375 1.5625 Z M 24.078125 -49.578125 L 67.390625 -49.578125 C 67.296875 -50.722656 67.035156 -51.957031 66.609375 -53.28125 C 66.179688 -54.613281 65.585938 -55.898438 64.828125 -57.140625 C 62.929688 -60.554688 60.296875 -63.117188 56.921875 -64.828125 C 53.546875 -66.535156 49.863281 -67.390625 45.875 -67.390625 C 37.332031 -67.390625 31.015625 -63.972656 26.921875 -57.140625 C 26.066406 -55.898438 25.425781 -54.59375 25 -53.21875 C 24.570312 -51.84375 24.265625 -50.628906 24.078125 -49.578125 Z M 24.078125 -49.578125 "/></g></g></g><g fill="#162a44" fill-opacity="1"><g transform="translate(706.385541, 737.860763)"><g><path d="M 26.078125 0 L 9.265625 0 L 9.265625 -79.65625 L 26.078125 -79.65625 L 26.078125 -69.671875 C 29.398438 -73.953125 32.9375 -76.921875 36.6875 -78.578125 C 40.4375 -80.242188 44.785156 -81.078125 49.734375 -81.078125 L 51.578125 -81.078125 L 51.578125 -64.6875 L 47.3125 -64.6875 C 40.945312 -64.6875 36.050781 -62.976562 32.625 -59.5625 C 28.257812 -55.476562 26.078125 -48.445312 26.078125 -38.46875 Z M 26.078125 0 "/></g></g></g><g fill="#162a44" fill-opacity="1"><g transform="translate(760.8116, 737.860763)"><g><path d="M 48.4375 0 L 34.203125 0 C 28.304688 0 23.71875 -1.351562 20.4375 -4.0625 C 17.164062 -6.769531 15.53125 -11.539062 15.53125 -18.375 L 15.53125 -65.6875 L 3.5625 -65.6875 L 3.5625 -79.65625 L 15.53125 -79.65625 L 15.53125 -108.71875 L 32.34375 -108.71875 L 32.34375 -79.65625 L 48.59375 -79.65625 L 48.59375 -65.6875 L 32.34375 -65.6875 L 32.34375 -23.078125 C 32.34375 -20.515625 32.742188 -18.378906 33.546875 -16.671875 C 34.359375 -14.960938 36.519531 -14.109375 40.03125 -14.109375 L 48.4375 -14.109375 Z M 48.4375 0 "/></g></g></g></svg>